<mxfile host="app.diagrams.net" modified="2023-05-04T06:48:59.148Z" agent="Mozilla/5.0 (Windows NT 10.0; Win64; x64) AppleWebKit/537.36 (KHTML, like Gecko) Chrome/112.0.0.0 Safari/537.36 Edg/112.0.1722.64" version="21.2.7" etag="Jr1QnWjieT3E7WWXnt7x" type="github">
  <diagram name="Page-1" id="Zew1lIUkvCgrGqh9w1Qx">
    <mxGraphModel>
      <root>
        <mxCell id="0" />
        <mxCell id="1" parent="0" />
      </root>
    </mxGraphModel>
  </diagram>
</mxfile>
